<?xml version="1.0" encoding="UTF-8" standalone="no"?>
<svg
   clip-rule="evenodd"
   fill-rule="evenodd"
   viewBox="0 0 560 400"
   version="1.1"
   id="svg76"
   sodipodi:docname="norwich-city.svg"
   inkscape:version="1.1.2 (b8e25be833, 2022-02-05)"
   xmlns:inkscape="http://www.inkscape.org/namespaces/inkscape"
   xmlns:sodipodi="http://sodipodi.sourceforge.net/DTD/sodipodi-0.dtd"
   xmlns="http://www.w3.org/2000/svg"
   xmlns:svg="http://www.w3.org/2000/svg">
  <defs
     id="defs80" />
  <sodipodi:namedview
     id="namedview78"
     pagecolor="#ffffff"
     bordercolor="#666666"
     borderopacity="1.0"
     inkscape:pageshadow="2"
     inkscape:pageopacity="0.0"
     inkscape:pagecheckerboard="0"
     showgrid="false"
     inkscape:zoom="1.955"
     inkscape:cx="274.93606"
     inkscape:cy="200"
     inkscape:window-width="1920"
     inkscape:window-height="986"
     inkscape:window-x="-11"
     inkscape:window-y="-11"
     inkscape:window-maximized="1"
     inkscape:current-layer="g72" />
  <g
     fill-rule="nonzero"
     id="g74">
    <path
       d="m400.341 141.106v-.027l.358-76.079h-241.398l.358 76.079v.027c0 96.552 59.33 193.894 120.341 193.894s120.341-97.342 120.341-193.894z"
       fill="#00a650"
       stroke="#000"
       stroke-width="8.29"
       id="path2" />
    <g
       stroke-width=".03"
       id="g72">
      <path
         d="M 172.913 75.521 C 177.424 75.409 181.935 75.409 186.418 75.493 C 186.474 77.286 186.446 79.051 186.474 80.816 C 189.304 80.872 192.162 80.872 195.02 80.816 C 194.992 79.051 194.963 77.286 195.076 75.521 C 199.839 75.409 204.63 75.409 209.421 75.521 C 209.505 77.286 209.477 79.051 209.477 80.816 C 212.223 80.872 214.969 80.872 217.715 80.816 C 217.687 79.051 217.659 77.286 217.743 75.493 C 222.73 75.409 227.717 75.409 232.705 75.493 C 232.789 77.286 232.761 79.051 232.733 80.816 C 235.282 80.872 237.86 80.872 240.41 80.816 C 240.41 79.051 240.382 77.286 240.466 75.493 C 244.949 75.409 249.46 75.409 253.971 75.521 C 254.027 77.286 253.999 79.051 253.999 80.816 C 257.221 80.872 260.443 80.872 263.665 80.816 C 263.637 79.051 263.609 77.286 263.693 75.521 C 269.045 75.409 274.424 75.409 279.776 75.493 C 279.86 85.327 279.86 95.134 279.776 104.94 C 263.525 104.968 247.274 104.996 231.023 104.94 C 230.939 101.69 231.108 98.468 230.939 95.246 C 227.129 95.274 223.346 95.274 219.564 95.246 C 219.536 98.468 219.648 101.718 219.508 104.94 C 203.985 104.968 188.463 104.968 172.913 104.94 C 172.829 95.134 172.829 85.327 172.913 75.521 M 174.706 76.894 C 174.678 85.72 174.678 94.517 174.678 103.343 C 189.024 103.399 203.369 103.455 217.715 103.315 C 217.743 99.981 217.603 96.619 217.771 93.285 C 222.786 93.341 227.801 93.313 232.817 93.313 C 232.845 96.647 232.761 100.009 232.873 103.343 C 247.919 103.399 262.965 103.427 278.011 103.343 C 278.011 94.517 278.011 85.72 277.983 76.894 C 273.836 76.838 269.661 76.81 265.514 76.922 C 265.514 78.771 265.542 80.648 265.458 82.497 C 261.059 82.525 256.632 82.525 252.234 82.497 C 252.121 80.648 252.178 78.771 252.178 76.922 C 248.871 76.81 245.537 76.81 242.231 76.922 C 242.231 78.771 242.259 80.648 242.147 82.497 C 238.448 82.525 234.722 82.525 231.023 82.497 C 230.995 80.62 231.051 78.771 230.967 76.894 C 227.157 76.81 223.346 76.81 219.536 76.922 C 219.564 78.771 219.592 80.648 219.508 82.497 C 215.557 82.525 211.607 82.525 207.656 82.497 C 207.572 80.648 207.6 78.799 207.628 76.922 C 204.042 76.782 200.427 76.81 196.841 76.922 C 196.841 78.771 196.869 80.648 196.785 82.497 C 192.75 82.525 188.715 82.525 184.681 82.497 C 184.597 80.648 184.653 78.799 184.653 76.922 C 181.346 76.782 178.012 76.838 174.706 76.894 Z"
         fill="#241f20"
         stroke="#241f20"
         id="path4" />
      <path
         d="M 174.706 76.894 C 178.012 76.838 181.346 76.782 184.653 76.922 C 184.653 78.799 184.597 80.648 184.681 82.497 C 188.715 82.525 192.75 82.525 196.785 82.497 C 196.869 80.648 196.841 78.771 196.841 76.922 C 200.427 76.81 204.042 76.782 207.628 76.922 C 207.6 78.799 207.572 80.648 207.656 82.497 C 211.607 82.525 215.557 82.525 219.508 82.497 C 219.592 80.648 219.564 78.771 219.536 76.922 C 223.346 76.81 227.157 76.81 230.967 76.894 C 231.051 78.771 230.995 80.62 231.023 82.497 C 234.722 82.525 238.448 82.525 242.147 82.497 C 242.259 80.648 242.231 78.771 242.231 76.922 C 245.537 76.81 248.871 76.81 252.178 76.922 C 252.178 78.771 252.121 80.648 252.234 82.497 C 256.632 82.525 261.059 82.525 265.458 82.497 C 265.542 80.648 265.514 78.771 265.514 76.922 C 269.661 76.81 273.836 76.838 277.983 76.894 C 278.011 85.72 278.011 94.517 278.011 103.343 C 262.965 103.427 247.919 103.399 232.873 103.343 C 232.761 100.009 232.845 96.647 232.817 93.313 C 227.801 93.313 222.786 93.341 217.771 93.285 C 217.603 96.619 217.743 99.981 217.715 103.315 C 203.369 103.455 189.024 103.399 174.678 103.343 C 174.678 94.517 174.678 85.72 174.706 76.894 M 190.06 87.793 C 190.032 90.315 189.976 92.836 190.088 95.386 C 190.733 95.358 191.349 95.358 191.994 95.386 C 192.078 92.836 192.05 90.315 192.022 87.793 Z M 257.921 87.821 C 257.921 90.343 257.893 92.864 257.921 95.358 L 259.855 95.358 C 259.967 92.836 259.939 90.315 259.883 87.793 C 259.238 87.793 258.566 87.793 257.921 87.821 Z"
         fill="#fff200"
         stroke="#fff200"
         id="path6" />
      <path
         d="M 345.311 85.664 C 350.047 80.564 357.387 77.622 364.308 78.967 C 365.989 79.443 367.978 79.948 368.959 81.545 C 371.705 86.028 372.658 91.603 371.425 96.731 C 370.696 100.093 368.847 103.091 367.026 105.977 C 364.728 109.535 361.114 112.337 356.967 113.318 C 354.081 113.738 350.803 112.926 348.786 110.712 C 346.768 107.238 346.628 103.007 347.077 99.112 C 347.189 96.367 349.682 94.125 352.288 93.677 C 353.381 93.369 353.969 94.433 354.614 95.106 C 355.93 96.591 357.948 97.263 359.909 97.347 C 362.711 97.571 365.849 97.179 367.95 95.134 C 370.332 92.948 370.22 88.549 367.418 86.756 C 364.896 85.271 361.73 84.179 358.844 85.159 C 356.827 85.692 354.67 86.42 353.437 88.185 C 352.68 89.278 353.213 91.015 352.008 91.8 C 350.299 92.696 348.085 92.808 346.852 94.461 C 344.023 97.684 344.975 102.307 345.199 106.201 C 345.199 110.012 348.029 113.542 351.672 114.551 C 354.866 115.503 358.452 115.307 361.45 113.822 C 366.97 110.46 370.976 104.94 372.882 98.776 C 372.714 115.615 371.845 132.623 367.418 148.958 C 365.065 157.587 361.646 166.021 356.631 173.474 C 351.419 181.375 344.331 188.016 336.121 192.751 C 326.315 198.859 314.967 202.221 303.508 203.314 C 293.701 204.322 283.754 203.762 274.088 201.801 C 280.813 200.484 286.192 195.945 291.067 191.406 C 292.188 190.621 293.645 190.649 294.934 190.285 C 311.269 186.699 327.379 179.358 338.559 166.609 C 343.995 160.361 348.085 152.908 350.187 144.895 C 350.327 143.97 351.279 143.69 352.008 143.354 C 354.866 142.065 357.023 139.711 358.816 137.218 C 358.564 136.938 358.34 136.685 358.116 136.405 C 352.176 142.233 344.135 146.044 335.757 146.212 C 332.955 146.296 330.153 145.82 327.408 145.259 C 324.466 150.527 318.946 153.721 313.286 155.318 C 308.495 156.635 303.227 157.587 298.464 155.626 C 301.658 150.274 302.667 144.082 304.572 138.254 C 304.937 136.882 306.029 135.957 307.038 135.06 C 322.168 120.519 330.518 100.513 345.311 85.664 Z"
         fill="#fff200"
         stroke="#fff200"
         id="path10" />
      <path
         d="M 371.649 81.489 C 375.207 81.657 378.794 82.357 382.044 83.842 C 379.018 84.767 375.908 85.411 372.826 86.14 C 372.405 84.599 371.985 83.058 371.649 81.489 Z"
         fill="#fff200"
         stroke="#fff200"
         id="path12" />
      <path
         d="M 373.638 88.521 C 376.72 86.56 380.475 86.056 384.061 85.972 C 381.175 88.409 377.169 89.25 374.759 92.36 C 374.311 91.099 373.918 89.81 373.638 88.521 Z"
         fill="#fff200"
         stroke="#fff200"
         id="path14" />
      <path
         d="M 360.245 86.812 C 362.011 86.644 363.692 87.485 365.373 87.961 C 367.138 88.493 368.455 90.791 367.586 92.5 C 366.522 93.621 365.149 94.433 363.776 95.134 C 361.618 95.582 359.265 95.554 357.219 94.742 C 355.286 94.041 354.333 91.8 354.502 89.894 C 355.846 88.101 358.116 87.261 360.245 86.812 M 359.377 87.961 C 357.752 88.381 356.295 90.006 356.743 91.772 C 357.219 93.565 359.293 94.069 360.89 94.405 C 362.459 94.854 363.916 93.789 364.924 92.696 C 365.989 91.435 365.541 89.418 364.224 88.577 C 362.795 87.653 360.974 87.597 359.377 87.961 Z"
         fill="#fff200"
         stroke="#fff200"
         id="path16" />
      <path
         d="M 190.06 87.793 L 192.022 87.793 C 192.05 90.315 192.078 92.836 191.994 95.386 C 191.349 95.358 190.733 95.358 190.088 95.386 C 189.976 92.836 190.032 90.315 190.06 87.793 Z"
         fill="#241f20"
         stroke="#241f20"
         id="path18" />
      <path
         d="M 257.921 87.821 C 258.566 87.793 259.238 87.793 259.883 87.793 C 259.939 90.315 259.967 92.836 259.855 95.358 L 257.921 95.358 C 257.893 92.864 257.921 90.343 257.921 87.821 Z"
         fill="#241f20"
         stroke="#241f20"
         id="path20" />
      <path
         d="M 359.377 87.961 C 360.974 87.597 362.795 87.653 364.224 88.577 C 365.541 89.418 365.989 91.435 364.924 92.696 C 363.916 93.789 362.459 94.854 360.89 94.405 C 359.293 94.069 357.219 93.565 356.743 91.772 C 356.295 90.006 357.752 88.381 359.377 87.961 Z"
         fill="#241f20"
         stroke="#241f20"
         id="path22" />
      <path
         d="M 192.302 116.736 C 193.955 113.542 196.336 110.712 199.278 108.611 C 199.895 109.619 200.371 111.02 201.66 111.273 C 203.621 111.497 205.414 110.124 207.376 110.348 C 208.805 110.488 208.553 112.73 209.981 112.898 C 211.298 112.87 212.559 112.365 213.848 112.169 C 212.755 118.193 208.412 122.844 206.031 128.308 C 212.447 127.551 218.891 126.823 225.364 126.907 C 231.164 126.907 236.991 126.879 242.791 127.243 C 250.861 127.243 258.986 127.607 267.055 126.991 C 269.073 127.075 269.997 123.545 267.952 122.9 C 262.713 120.603 256.913 122.312 251.449 122.508 C 247.779 122.424 244.192 123.124 240.578 123.573 C 234.218 124.469 227.689 125.058 221.329 123.881 C 219.284 123.601 218.191 121.611 217.49 119.902 C 216.09 115.98 219.144 111.581 223.066 110.768 C 235.647 107.322 248.787 111.581 261.48 108.863 C 265.318 107.966 269.493 108.583 272.855 110.712 C 275.489 112.169 277.394 115.111 277.31 118.165 C 275.797 118.613 274.228 118.641 272.687 118.726 C 275.237 120.154 277.422 122.508 278.011 125.45 C 278.347 128.504 275.685 130.942 273.051 131.922 C 268.765 133.379 263.777 132.679 260.051 135.593 C 260.499 136.826 261.368 137.974 262.684 138.254 C 265.739 138.899 268.765 137.106 271.819 137.806 C 273.079 138.086 273.892 139.179 274.704 140.104 C 276.302 139.095 278.179 139.151 280 139.235 C 280.897 143.606 277.702 147.08 276.358 150.947 C 275.545 153.02 276.274 155.178 276.946 157.195 C 273.612 157.251 272.015 154.029 269.885 152.068 C 268.68 150.779 266.635 151.227 265.374 150.134 C 264.73 148.285 267.027 146.24 265.654 144.475 C 262.656 143.606 260.051 145.932 257.557 147.248 C 255.792 148.341 253.662 148.453 251.673 148.117 C 251.253 149.35 251.113 150.639 251.001 151.928 C 250.833 154.281 249.095 156.158 247.218 157.363 C 245.705 158.456 244.276 156.607 242.763 156.467 C 237.44 155.374 233.181 160.361 227.913 159.857 C 225.728 159.549 223.038 158.344 223.15 155.738 C 221.805 155.934 220.488 156.214 219.144 156.383 C 218.807 155.122 218.891 153.665 219.816 152.656 C 220.769 151.227 222.422 150.695 223.879 149.938 C 223.823 149.098 223.066 148.509 222.59 147.865 C 224.103 146.576 226.092 145.904 228.053 146.296 C 232.312 147.164 236.207 150.807 240.802 149.238 C 239.289 147.108 236.907 145.791 235.478 143.606 C 234.274 141.813 234.89 139.011 236.935 138.114 C 239.401 137.134 242.147 138.114 244.612 137.19 C 244.444 136.489 244.22 135.453 243.268 135.649 C 241.026 135.789 238.729 134.92 236.571 135.761 C 230.267 137.75 226.512 143.914 220.348 146.184 C 218.107 147.08 215.641 146.744 213.344 147.276 C 210.15 147.977 206.871 147.977 203.621 148.397 C 203.845 150.106 204.07 151.928 203.285 153.525 C 202.529 155.206 201.1 156.971 199.082 157.055 C 198.018 156.383 197.233 155.374 196.28 154.561 C 194.319 156.607 191.489 157.671 188.687 157.559 C 187.651 157.363 186.978 156.242 185.857 156.326 C 183.784 156.186 181.094 156.999 179.665 154.954 C 180.114 154.393 180.702 153.889 180.898 153.16 C 180.674 152.208 179.581 151.787 178.713 151.647 C 176.611 151.339 174.482 151.787 172.38 151.703 C 170.475 151.703 168.99 150.274 167.673 149.042 C 169.411 147.164 167.365 144.979 167.897 142.85 C 174.454 142.878 180.17 147.136 186.754 146.828 C 187.146 145.539 187.174 144.166 186.95 142.85 C 183.448 142.289 179.833 142.233 176.387 141.337 C 174.258 140.804 172.1 139.824 170.727 138.058 C 169.607 136.573 169.018 134.78 168.43 133.043 C 168.934 132.623 169.439 132.23 169.943 131.838 C 169.803 129.681 169.074 127.523 169.579 125.366 C 169.803 124.329 170.952 123.993 171.764 123.545 C 170.671 121.359 169.046 119.09 169.635 116.512 C 169.775 115.139 171.4 114.607 171.736 113.374 C 171.512 112.085 170.587 111.02 170.251 109.732 C 171.904 109.199 173.725 109.395 175.182 110.292 C 177.34 111.385 179.413 113.766 182.047 112.926 C 183.532 112.029 184.905 110.824 186.754 110.936 C 185.409 116.288 180.478 119.846 179.161 125.198 C 178.404 128.196 180.45 131.11 182.972 132.511 C 184.372 133.155 185.97 132.875 187.454 132.875 C 188.519 127.355 189.612 121.723 192.302 116.736 M 260.135 110.852 C 258.93 111.301 257.809 112.225 256.464 112.001 C 248.927 111.245 241.362 110.768 233.769 110.964 C 229.482 110.908 225.027 111.413 221.161 113.402 C 218.331 114.943 218.499 118.978 220.292 121.219 C 221.161 121.808 222.198 122.004 223.178 122.256 C 231.948 124.385 240.69 120.715 249.46 120.995 C 255.26 120.743 261.115 118.697 266.831 120.351 C 269.017 120.827 270.782 122.676 271.146 124.89 C 271.23 126.655 269.633 128.056 268.008 128.532 C 265.542 129.204 262.937 129.289 260.387 129.12 C 241.054 128.028 221.609 128.168 202.388 130.83 C 202.669 130.241 202.921 129.625 203.201 129.008 C 200.679 128.84 198.55 126.627 198.634 124.049 C 201.268 123.853 203.929 123.909 206.563 123.685 C 208.076 120.687 209.729 117.689 210.85 114.495 C 210.009 114.859 209.253 115.475 208.3 115.447 C 207.376 114.607 207.32 113.234 206.899 112.141 C 205.246 112.505 203.677 113.066 202.136 113.682 C 201.184 112.926 200.455 111.637 199.334 111.245 C 196.729 113.066 194.739 115.756 193.45 118.669 C 194.795 120.547 197.821 122.172 196.476 124.862 C 194.655 124.974 192.806 124.918 190.985 124.946 C 190.2 127.075 189.724 129.345 189.892 131.642 C 190.761 130.858 191.461 129.877 192.442 129.261 C 194.487 128.756 196.617 129.709 198.018 131.194 C 199.531 132.819 200.875 134.64 202.641 136.041 C 198.13 136.321 193.983 133.772 189.472 133.996 C 186.474 138.226 190.368 143.13 189.08 147.697 C 182.803 149.518 176.751 146.324 170.755 145.035 C 171.232 145.231 171.736 145.455 172.24 145.651 C 171.652 146.856 171.008 148.033 170.419 149.21 C 174.342 150.779 178.657 149.406 182.691 150.359 C 182.719 151.9 182.719 153.413 182.775 154.926 C 185.325 155.402 187.146 153.385 188.687 151.703 C 189.948 152.544 190.761 153.777 191.321 155.15 C 193.871 155.318 194.711 152.124 197.037 151.535 C 197.765 152.628 198.214 153.861 198.942 154.954 C 199.839 155.626 200.791 154.617 201.128 153.833 C 202.444 151.619 201.576 149.014 200.763 146.772 C 204.938 145.735 209.309 146.044 213.568 145.511 C 217.294 145.007 221.021 143.97 224.187 141.897 C 228.362 139.319 231.864 135.593 236.487 133.772 C 239.541 132.483 243.015 132.735 246.041 133.94 C 246.882 136.685 246.182 139.543 246.63 142.345 C 246.994 144.054 248.311 146.044 250.272 145.988 C 253.158 146.016 256.296 146.212 258.79 144.559 C 260.415 143.382 262.348 142.765 264.31 142.429 C 265.963 142.149 267.784 143.354 267.98 145.035 C 268.148 146.352 267.7 147.613 267.364 148.874 C 268.456 148.818 269.773 148.481 270.614 149.378 C 272.043 150.975 272.267 153.609 274.536 154.393 C 274.312 153.441 274.004 152.46 274.004 151.479 C 274.172 147.389 278.963 144.979 278.375 140.72 C 276.778 140.86 275.881 142.457 274.396 142.793 C 273.191 142.345 272.799 140.804 271.65 140.216 C 269.493 139.011 266.831 139.515 264.562 140.02 C 261.536 141.196 258.145 138.283 258.061 135.256 C 258.594 133.968 259.883 133.155 261.087 132.567 C 264.674 130.998 268.821 131.642 272.435 130.185 C 274.648 129.317 276.077 126.935 275.853 124.609 C 275.153 123.208 273.78 122.284 272.547 121.387 C 265.739 116.932 256.885 116.904 249.292 119.202 C 247.414 116.288 243.66 115.84 240.494 116.092 C 238.308 116.68 238.196 120.042 235.787 120.21 C 232.256 120.743 228.67 121.555 225.112 120.883 C 223.542 120.463 221.777 119.678 221.105 118.109 C 221.273 116.232 221.581 113.458 223.851 113.038 C 228.838 111.917 234.021 111.665 239.121 112.057 C 251.225 112.73 263.077 116.288 275.265 116.064 C 274.116 113.57 271.706 111.889 269.129 111.132 C 266.243 110.208 263.021 109.704 260.135 110.852 M 173.613 111.329 C 173.725 112.001 173.921 112.673 173.865 113.346 C 173.417 114.859 171.372 115.531 171.512 117.269 C 171.036 120.715 174.79 122.76 174.818 126.066 C 173.893 126.066 172.997 126.01 172.072 125.87 C 171.316 127.635 171.288 129.681 171.96 131.446 C 172.521 132.483 173.753 132.875 174.594 133.631 C 174.762 134.052 174.37 134.276 174.062 134.416 C 172.913 134.36 171.792 133.996 170.671 134.304 C 171.54 136.293 172.829 138.283 174.846 139.235 C 178.432 140.552 182.327 140.496 186.138 140.44 C 186.25 138.647 186.418 136.826 186.67 135.004 C 183.644 135.032 180.73 133.687 178.769 131.362 C 176.723 129.401 176.751 126.263 177.396 123.685 C 178.545 119.594 181.907 116.792 184.148 113.318 C 182.663 113.346 181.795 114.691 180.506 115.111 C 177.788 114.859 176.135 112.225 173.613 111.329 M 225.224 114.635 C 223.879 115.111 222.926 116.652 223.43 118.053 C 226.568 120.21 230.575 119.034 234.021 118.417 C 236.543 118.221 237.356 115.419 239.345 114.271 C 234.666 114.046 229.791 113.066 225.224 114.635 M 246.35 114.831 C 248.591 117.184 252.206 116.736 255.091 116.036 C 252.178 115.559 249.264 115.027 246.35 114.831 M 237.86 139.852 C 237.103 140.244 236.207 141.309 236.991 142.093 C 239.177 144.643 241.502 147.052 243.716 149.602 C 242.455 150.723 240.802 151.367 239.093 151.311 C 234.834 151.255 231.192 148.481 226.989 148.061 C 227.493 148.621 227.997 149.182 228.502 149.742 C 226.148 151.451 222.674 151.563 221.049 154.225 C 222.338 153.945 223.599 153.553 224.859 153.16 C 225.28 154.477 225.392 155.85 225.924 157.111 C 226.793 157.952 228.138 158.12 229.286 158.036 C 232.312 157.727 234.694 155.43 237.692 155.094 C 240.354 154.87 242.875 156.298 245.537 156.018 C 246.77 155.906 247.835 155.122 248.395 154.057 C 249.236 152.544 250.132 150.695 249.404 148.958 C 248.255 146.436 245.397 145.203 244.22 142.681 C 243.688 141.617 243.856 140.384 243.968 139.235 C 241.951 139.347 239.737 138.871 237.86 139.852 Z"
         fill="#241f20"
         stroke="#241f20"
         id="path24" />
      <g
         fill="#fff200"
         stroke="#fff200"
         id="g54">
        <path
           d="m260.135 110.852c2.886-1.148 6.108-.644 8.994.28 2.577.757 4.987 2.438 6.136 4.932-12.188.224-24.04-3.334-36.144-4.007-5.1-.392-10.283-.14-15.27.981-2.27.42-2.578 3.194-2.746 5.071.672 1.569 2.437 2.354 4.007 2.774 3.558.672 7.144-.14 10.675-.673 2.409-.168 2.521-3.53 4.707-4.118 3.166-.252 6.92.196 8.798 3.11 7.593-2.298 16.447-2.27 23.255 2.185 1.233.897 2.606 1.821 3.306 3.222.224 2.326-1.205 4.708-3.418 5.576-3.614 1.457-7.761.813-11.348 2.382-1.204.588-2.493 1.401-3.026 2.689.084 3.027 3.475 5.94 6.501 4.764 2.269-.505 4.931-1.009 7.088.196 1.149.588 1.541 2.129 2.746 2.577 1.485-.336 2.382-1.933 3.979-2.073.588 4.259-4.203 6.669-4.371 10.759 0 .981.308 1.962.532 2.914-2.269-.784-2.493-3.418-3.922-5.015-.841-.897-2.158-.56-3.25-.504.336-1.261.784-2.522.616-3.839-.196-1.681-2.017-2.886-3.67-2.606-1.962.336-3.895.953-5.52 2.13-2.494 1.653-5.632 1.457-8.518 1.429-1.961.056-3.278-1.934-3.642-3.643-.448-2.802.252-5.66-.589-8.405-3.026-1.205-6.5-1.457-9.554-.168-4.623 1.821-8.125 5.547-12.3 8.125-3.166 2.073-6.893 3.11-10.619 3.614-4.259.533-8.63.224-12.805 1.261.813 2.242 1.681 4.847.365 7.061-.337.784-1.289 1.793-2.186 1.121-.728-1.093-1.177-2.326-1.905-3.419-2.326.589-3.166 3.783-5.716 3.615-.56-1.373-1.373-2.606-2.634-3.447-1.541 1.682-3.362 3.699-5.912 3.223-.056-1.513-.056-3.026-.084-4.567-4.034-.953-8.349.42-12.272-1.149.589-1.177 1.233-2.354 1.821-3.559-.504-.196-1.008-.42-1.485-.616 5.996 1.289 12.048 4.483 18.325 2.662 1.288-4.567-2.606-9.471.392-13.701 4.511-.224 8.658 2.325 13.169 2.045-1.766-1.401-3.11-3.222-4.623-4.847-1.401-1.485-3.531-2.438-5.576-1.933-.981.616-1.681 1.597-2.55 2.381-.168-2.297.308-4.567 1.093-6.696 1.821-.028 3.67.028 5.491-.084 1.345-2.69-1.681-4.315-3.026-6.193 1.289-2.913 3.279-5.603 5.884-7.424 1.121.392 1.85 1.681 2.802 2.437 1.541-.616 3.11-1.177 4.763-1.541.421 1.093.477 2.466 1.401 3.306.953.028 1.709-.588 2.55-.952-1.121 3.194-2.774 6.192-4.287 9.19-2.634.224-5.295.168-7.929.364-.084 2.578 2.045 4.791 4.567 4.959-.28.617-.532 1.233-.813 1.822 19.221-2.662 38.666-2.802 57.999-1.71 2.55.169 5.155.084 7.621-.588 1.625-.476 3.222-1.877 3.138-3.642-.364-2.214-2.129-4.063-4.315-4.539-5.716-1.654-11.571.392-17.371.644-8.77-.28-17.512 3.39-26.282 1.261-.98-.252-2.017-.448-2.886-1.037-1.793-2.241-1.961-6.276.869-7.817 3.866-1.989 8.321-2.494 12.608-2.438 7.593-.196 15.158.281 22.695 1.037 1.345.224 2.466-.7 3.671-1.149z"
           id="path26" />
        <path
           d="m173.613 111.329c2.522.896 4.175 3.53 6.893 3.782 1.289-.42 2.157-1.765 3.642-1.793-2.241 3.474-5.603 6.276-6.752 10.367-.645 2.578-.673 5.716 1.373 7.677 1.961 2.325 4.875 3.67 7.901 3.642-.252 1.822-.42 3.643-.532 5.436-3.811.056-7.706.112-11.292-1.205-2.017-.952-3.306-2.942-4.175-4.931 1.121-.308 2.242.056 3.391.112.308-.14.7-.364.532-.785-.841-.756-2.073-1.148-2.634-2.185-.672-1.765-.644-3.811.112-5.576.925.14 1.821.196 2.746.196-.028-3.306-3.782-5.351-3.306-8.797-.14-1.738 1.905-2.41 2.353-3.923.056-.673-.14-1.345-.252-2.017z"
           id="path28" />
        <path
           d="m237.86 139.852c1.877-.981 4.091-.505 6.108-.617-.112 1.149-.28 2.382.252 3.446 1.177 2.522 4.035 3.755 5.184 6.277.728 1.737-.168 3.586-1.009 5.099-.56 1.065-1.625 1.849-2.858 1.961-2.662.28-5.183-1.148-7.845-.924-2.998.336-5.38 2.633-8.406 2.942-1.148.084-2.493-.084-3.362-.925-.532-1.261-.644-2.634-1.065-3.951-1.26.393-2.521.785-3.81 1.065 1.625-2.662 5.099-2.774 7.453-4.483-.505-.56-1.009-1.121-1.513-1.681 4.203.42 7.845 3.194 12.104 3.25 1.709.056 3.362-.588 4.623-1.709-2.214-2.55-4.539-4.959-6.725-7.509-.784-.784.112-1.849.869-2.241z"
           id="path30" />
        <path
           d="m298.184 145.287c1.205-1.401 2.326-2.886 3.614-4.175-1.372 5.212-3.614 10.199-6.444 14.794-7.004 11.432-17.007 20.51-25.777 30.541-4.371 5.043-9.022 9.862-13.449 14.877.336.309.645.645.981.981-2.634 5.408-7.621 9.218-12.693 12.216-2.325 1.289-4.595 2.662-7.06 3.671.924-1.401 2.101-2.634 3.194-3.895 19.361-22.891 38.441-46.007 57.634-69.01z"
           id="path32" />
        <path
           d="m343.126 146.772c1.345-.7 2.942-.756 4.427-.952-3.026 10.927-10.087 20.453-18.913 27.402-10.983 8.685-24.488 13.757-38.273 15.746-6.304.841-12.496-.98-18.745-1.513.841-2.55 2.69-4.875 5.352-5.66 6.052-1.877 12.3 1.626 18.352-.056 9.919-1.989 19.669-5.323 28.215-10.815 7.929-5.071 14.654-12.384 17.904-21.294.42-1.009.616-2.297 1.681-2.858z"
           id="path34" />
        <path
           d="m322.812 152.824c2.074-1.597 3.783-3.558 5.408-5.576 1.317.169 2.606.421 3.895.729-6.697 11.852-19.922 19.053-33.286 20.201-1.373.056-2.662-.504-4.035-.672-1.597-.28-3.502-.224-4.567-1.681 2.213-2.802 4.539-5.492 6.892-8.154 8.714 2.494 18.605.925 25.693-4.847z"
           id="path36" />
        <path
           d="m334.636 148.649c1.373-1.204 3.278-1.373 5.044-1.092-1.962 7.649-7.145 14.149-13.421 18.8-7.341 5.492-15.915 8.994-24.432 12.216-7.313 2.018-15.103 1.681-22.527.421 2.97-3.615 5.996-7.145 9.106-10.619 3.194 1.288 6.612 2.185 10.086 2.073 6.641.224 12.973-2.354 18.577-5.688 4.595-2.774 8.741-6.164 12.72-9.722 2.101-1.738 2.634-4.707 4.847-6.389z"
           id="path38" />
        <path
           d="m269.997 189.052c5.968 1.401 12.048 2.41 18.184 2.046-7.088 7.649-18.24 10.647-28.354 9.106 3.278-3.839 6.752-7.453 10.17-11.152z"
           id="path40" />
        <path
           d="m258.622 203.23c.616-.673 1.429-1.205 2.353-1.261 1.429-.084 2.578 1.065 4.007.952 1.569-.056 3.138-.196 4.735-.196-5.548 5.576-10.899 11.348-16.055 17.26-1.541-2.354-1.793-5.268-1.428-7.986.056-.84.756-1.288 1.316-1.793 2.298-1.849 3.11-4.875 5.072-6.976z"
           id="path42" />
        <path
           d="m286.388 206.088c1.009-1.037 2.578-.561 3.839-.589-1.289 3.671-3.979 6.949-3.979 10.983.084 3.531 2.017 6.669 2.774 10.059-1.009.28-2.017.504-3.054.673 0-4.82-2.157-9.303-2.326-14.094-.14-2.605.841-5.239 2.746-7.032z"
           id="path44" />
        <path
           d="m297.035 205.751c1.513-.028 3.054-.056 4.567.028-2.185 2.55-3.978 5.548-4.09 8.994-.477 8.126 4.343 15.299 5.071 23.256 3.502.616 7.061.56 10.507 1.261-2.998.14-6.893-.617-8.826 2.325 2.83 2.774 6.865 4.007 9.358 7.145-2.409-.785-4.315-3.334-7.116-2.354-.421 2.914 1.316 5.688.644 8.574-1.905-3.418-2.213-7.621-4.791-10.703-.981-1.093-2.27-2.298-3.839-2.101-4.118.644-7.649 2.942-11.263 4.819 2.493-4.063 8.181-3.811 11.179-7.341.645-.729 1.121-1.681 1.093-2.718.084-7.901-5.8-14.514-5.464-22.443-.028-.812.168-1.625.757-2.241 1.653-1.794 1.093-4.455 2.213-6.501z"
           id="path46" />
        <path
           d="m248.535 215.306c.364-.589.757-1.121 1.121-1.653.252 2.717.98 5.379 2.297 7.817-11.823 14.317-25.441 27.262-35.443 43.036-1.401 2.074-2.522 4.315-3.867 6.417-1.233-4.483.224-9.078.869-13.561.224-1.065.084-2.438 1.065-3.194 13.42-10.9 24.88-24.181 33.958-38.862z"
           id="path48" />
        <path
           d="m235.843 221.05c3.642-.785 6.64-3.083 9.666-5.128-8.041 13.589-18.688 25.497-30.652 35.724-1.121.952-2.214 2.129-3.699 2.437-3.194.729-6.556-.14-9.694.897 11.936-8.938 21.238-20.762 31.269-31.689.84-.981 1.737-2.045 3.11-2.241z"
           id="path50" />
        <path
           d="m302.415 226.905c5.856.197 11.74 1.597 16.979 4.259 10.563 5.352 18.352 15.41 21.771 26.646 4.23 14.71-.869 31.157-11.768 41.692-9.779 9.834-24.937 12.58-38.162 9.666-17.511-3.558-31.605-19.893-32.417-37.741-.729-13.281 5.071-26.814 15.466-35.163 4.903-3.923 10.703-6.641 16.783-8.154 1.205-.28 2.41-.728 3.671-.616 2.017 1.765 2.578 4.623 2.69 7.201-.056 1.372.084 3.054-1.009 4.09-3.11 2.858-7.649 3.447-10.619 6.473-1.429 1.457-1.933 3.502-1.877 5.491 4.09-1.177 7.34-4.09 11.235-5.66 1.541-.588 3.39-1.597 4.931-.476 2.13 1.457 2.522 4.203 3.279 6.5 1.036 3.083 1.793 6.221 2.941 9.247 3.026-3.082 3.811-7.79 2.55-11.824 4.007.728 5.996 4.847 9.667 6.192.168-2.97-1.597-5.604-3.643-7.565-2.101-2.13-4.707-3.615-6.92-5.604 4.174-.812 8.489.28 12.608-.924-.084-.561-.028-1.289-.644-1.57-1.177-.756-2.438-1.456-3.811-1.737-4.063-.7-8.181-.756-12.244-1.261-.504-3.054-1.149-6.08-1.457-9.162m-23.031 34.912c-1.569 3.362-1.625 7.2-1.149 10.815.448.028.896.056 1.345.112-.056-3.979.364-7.985 1.513-11.796-.645.084-1.457.14-1.709.869m-5.184.98c-1.345 2.802-1.681 6.248-.336 9.106.42.028.84.056 1.261.084-.953-3.278-.336-6.696.728-9.862-.56.14-1.373 0-1.653.672m-3.95.252c-.897 2.634-.561 5.52.196 8.154h1.176c-.392-2.774-.308-5.548-.028-8.322-.448.056-.896.112-1.344.168m-2.774.645c-.589 2.045-.561 4.203-.028 6.248.056.588.728.588 1.148.813-.168-2.41-.252-4.848 0-7.285-.364.084-.756.168-1.12.224m-2.382.364c-.812 1.905-.42 3.951-.084 5.912.308.028.616.056.925.084-.168-1.989-.196-3.979.028-5.968-.224 0-.645-.028-.869-.028m-3.726 5.184c.168.056.476.14.644.196-.056-1.625 0-3.279-.084-4.904-1.485 1.093-.785 3.195-.56 4.708m1.905.308c.168.028.504.084.672.14-.168-1.793 0-3.559-.14-5.352-1.709 1.177-.868 3.559-.532 5.212m-3.587-4.399c-.168 1.373-.504 3.054.589 4.175.14-1.457.084-2.914.084-4.371-.168.056-.504.14-.673.196z"
           id="path52" />
      </g>
      <path
         d="M 279.384 261.817 C 279.636 261.088 280.448 261.032 281.093 260.948 C 279.944 264.759 279.524 268.765 279.58 272.744 C 279.131 272.688 278.683 272.66 278.235 272.632 C 277.759 269.017 277.815 265.179 279.384 261.817 Z"
         fill="#241f20"
         stroke="#241f20"
         id="path56" />
      <path
         d="M 274.2 262.797 C 274.48 262.125 275.293 262.265 275.853 262.125 C 274.789 265.291 274.172 268.709 275.125 271.987 C 274.704 271.959 274.284 271.931 273.864 271.903 C 272.519 269.045 272.855 265.599 274.2 262.797 Z"
         fill="#241f20"
         stroke="#241f20"
         id="path58" />
      <path
         d="M 270.25 263.049 L 271.594 262.881 C 271.314 265.655 271.23 268.429 271.622 271.203 L 270.446 271.203 C 269.689 268.569 269.353 265.683 270.25 263.049 Z"
         fill="#241f20"
         stroke="#241f20"
         id="path60" />
      <path
         d="M 267.476 263.694 C 267.84 263.638 268.232 263.554 268.596 263.47 C 268.344 265.907 268.428 268.345 268.596 270.755 C 268.176 270.53 267.504 270.53 267.448 269.942 C 266.915 267.897 266.887 265.739 267.476 263.694 Z"
         fill="#241f20"
         stroke="#241f20"
         id="path62" />
      <path
         d="M 265.094 264.058 C 265.318 264.058 265.739 264.086 265.963 264.086 C 265.739 266.075 265.767 268.065 265.935 270.054 C 265.626 270.026 265.318 269.998 265.01 269.97 C 264.674 268.009 264.282 265.963 265.094 264.058 Z"
         fill="#241f20"
         stroke="#241f20"
         id="path64" />
      <path
         d="M 261.368 269.242 C 261.143 267.729 260.443 265.627 261.928 264.534 C 262.012 266.159 261.956 267.813 262.012 269.438 C 261.844 269.382 261.536 269.298 261.368 269.242 Z"
         fill="#241f20"
         stroke="#241f20"
         id="path66" />
      <path
         d="M 263.273 269.55 C 262.937 267.897 262.096 265.515 263.805 264.338 C 263.945 266.131 263.777 267.897 263.945 269.69 C 263.777 269.634 263.441 269.578 263.273 269.55 Z"
         fill="#241f20"
         stroke="#241f20"
         id="path68" />
      <path
         d="M 259.686 265.151 C 259.855 265.095 260.191 265.011 260.359 264.955 C 260.359 266.412 260.415 267.869 260.275 269.326 C 259.182 268.205 259.518 266.524 259.686 265.151 Z"
         fill="#241f20"
         stroke="#241f20"
         id="path70" />
      <path
         d="M 341.053 87.008 C 345.48 82.021 351.419 77.986 358.2 77.286 C 360.75 77.09 363.467 76.81 365.849 77.958 C 371.257 80.732 377.673 79.527 383.193 81.909 C 384.846 82.638 386.359 83.702 387.535 85.075 C 384.846 89.782 378.373 90.034 375.319 94.405 C 374.171 96.002 374.227 98.048 374.339 99.925 C 375.403 121.051 372.377 142.485 364.728 162.238 C 360.638 173.446 352.764 183 343.238 190.061 C 332.227 198.242 319.086 203.482 305.497 205.303 C 304.208 205.415 303.452 206.592 302.723 207.545 C 299.081 212.504 299.081 219.424 301.574 224.86 C 316.985 225.617 331.498 234.751 339.231 248.031 C 341.361 251.59 342.958 255.484 343.686 259.547 C 345.928 270.923 343.77 283.195 337.466 292.973 C 329.593 305.021 315.275 312.166 301.014 312.222 C 297.428 312.278 293.785 312.278 290.339 311.213 C 276.414 307.347 264.141 296.924 259.294 283.139 C 254.811 269.97 257.221 254.756 265.122 243.324 C 269.717 236.656 276.442 231.556 283.923 228.474 C 284.959 222.254 280.672 216.567 281.709 210.346 C 281.989 208.357 283.362 206.816 284.539 205.275 C 280.588 203.286 276.049 204.631 271.903 203.566 C 253.775 221.302 237.692 240.971 221.133 260.164 C 217.575 265.403 214.156 270.839 212.139 276.891 C 209.057 270.278 211.326 262.909 211.859 256.017 C 206.451 255.316 201.184 257.166 195.832 257.418 C 197.597 255.765 199.643 254.42 201.492 252.851 C 218.863 238.533 232.424 220.405 247.274 203.65 C 248.983 201.801 250.608 199.895 252.206 197.934 C 274.284 171.372 296.391 144.811 318.47 118.221 C 320.627 115.615 322.868 113.066 324.914 110.404 C 330.265 102.587 334.636 94.041 341.053 87.008 M 345.311 85.664 C 330.518 100.513 322.168 120.519 307.038 135.06 C 306.029 135.957 304.937 136.882 304.572 138.254 C 302.667 144.082 301.658 150.274 298.464 155.626 C 303.227 157.587 308.495 156.635 313.286 155.318 C 318.946 153.721 324.466 150.527 327.408 145.259 C 330.153 145.82 332.955 146.296 335.757 146.212 C 344.135 146.044 352.176 142.233 358.116 136.405 C 358.34 136.685 358.564 136.938 358.816 137.218 C 357.023 139.711 354.866 142.065 352.008 143.354 C 351.279 143.69 350.327 143.97 350.187 144.895 C 348.085 152.908 343.995 160.361 338.559 166.609 C 327.379 179.358 311.269 186.699 294.934 190.285 C 293.645 190.649 292.188 190.621 291.067 191.406 C 286.192 195.945 280.813 200.484 274.088 201.801 C 283.754 203.762 293.701 204.322 303.508 203.314 C 314.967 202.221 326.315 198.859 336.121 192.751 C 344.331 188.016 351.419 181.375 356.631 173.474 C 361.646 166.021 365.065 157.587 367.418 148.958 C 371.845 132.623 372.714 115.615 372.882 98.776 C 370.976 104.94 366.97 110.46 361.45 113.822 C 358.452 115.307 354.866 115.503 351.672 114.551 C 348.029 113.542 345.199 110.012 345.199 106.201 C 344.975 102.307 344.023 97.684 346.852 94.461 C 348.085 92.808 350.299 92.696 352.008 91.8 C 353.213 91.015 352.68 89.278 353.437 88.185 C 354.67 86.42 356.827 85.692 358.844 85.159 C 361.73 84.179 364.896 85.271 367.418 86.756 C 370.22 88.549 370.332 92.948 367.95 95.134 C 365.849 97.179 362.711 97.571 359.909 97.347 C 357.948 97.263 355.93 96.591 354.614 95.106 C 353.969 94.433 353.381 93.369 352.288 93.677 C 349.682 94.125 347.189 96.367 347.077 99.112 C 346.628 103.007 346.768 107.238 348.786 110.712 C 350.803 112.926 354.081 113.738 356.967 113.318 C 361.114 112.337 364.728 109.535 367.026 105.977 C 368.847 103.091 370.696 100.093 371.425 96.731 C 372.658 91.603 371.705 86.028 368.959 81.545 C 367.978 79.948 365.989 79.443 364.308 78.967 C 357.387 77.622 350.047 80.564 345.311 85.664 M 371.649 81.489 C 371.985 83.058 372.405 84.599 372.826 86.14 C 375.908 85.411 379.018 84.767 382.044 83.842 C 378.794 82.357 375.207 81.657 371.649 81.489 M 373.638 88.521 C 373.918 89.81 374.311 91.099 374.759 92.36 C 377.169 89.25 381.175 88.409 384.061 85.972 C 380.475 86.056 376.72 86.56 373.638 88.521 M 360.245 86.812 C 358.116 87.261 355.846 88.101 354.502 89.894 C 354.333 91.8 355.286 94.041 357.219 94.742 C 359.265 95.554 361.618 95.582 363.776 95.134 C 365.149 94.433 366.522 93.621 367.586 92.5 C 368.455 90.791 367.138 88.493 365.373 87.961 C 363.692 87.485 362.011 86.644 360.245 86.812 M 298.184 145.287 C 278.991 168.29 259.911 191.406 240.55 214.297 C 239.457 215.558 238.28 216.791 237.356 218.192 C 239.821 217.183 242.091 215.81 244.416 214.521 C 249.488 211.523 254.475 207.713 257.109 202.305 C 256.773 201.969 256.464 201.633 256.128 201.324 C 260.555 196.309 265.206 191.49 269.577 186.447 C 278.347 176.416 288.35 167.338 295.354 155.906 C 298.184 151.311 300.426 146.324 301.798 141.112 C 300.51 142.401 299.389 143.886 298.184 145.287 M 343.126 146.772 C 342.061 147.333 341.865 148.621 341.445 149.63 C 338.195 158.54 331.47 165.853 323.541 170.924 C 314.995 176.416 305.245 179.75 295.326 181.739 C 289.274 183.421 283.026 179.918 276.974 181.795 C 274.312 182.58 272.463 184.905 271.622 187.455 C 277.871 187.988 284.063 189.809 290.367 188.968 C 304.152 186.979 317.657 181.907 328.64 173.222 C 337.466 166.273 344.527 156.747 347.553 145.82 C 346.068 146.016 344.471 146.072 343.126 146.772 M 322.812 152.824 C 315.724 158.596 305.833 160.165 297.119 157.671 C 294.766 160.333 292.44 163.023 290.227 165.825 C 291.292 167.282 293.197 167.226 294.794 167.506 C 296.167 167.674 297.456 168.234 298.829 168.178 C 312.193 167.03 325.418 159.829 332.115 147.977 C 330.826 147.669 329.537 147.417 328.22 147.248 C 326.595 149.266 324.886 151.227 322.812 152.824 M 334.636 148.649 C 332.423 150.331 331.89 153.3 329.789 155.038 C 325.81 158.596 321.664 161.986 317.069 164.76 C 311.465 168.094 305.133 170.672 298.492 170.448 C 295.018 170.56 291.6 169.663 288.406 168.375 C 285.296 171.849 282.27 175.379 279.3 178.994 C 286.724 180.254 294.514 180.591 301.827 178.573 C 310.344 175.351 318.918 171.849 326.259 166.357 C 332.535 161.706 337.718 155.206 339.68 147.557 C 337.914 147.276 336.009 147.445 334.636 148.649 M 269.997 189.052 C 266.579 192.751 263.105 196.365 259.827 200.204 C 269.941 201.745 281.093 198.747 288.181 191.098 C 282.045 191.462 275.965 190.453 269.997 189.052 M 258.622 203.23 C 256.66 205.331 255.848 208.357 253.55 210.206 C 252.99 210.711 252.29 211.159 252.234 211.999 C 251.869 214.717 252.121 217.631 253.662 219.985 C 258.818 214.073 264.169 208.301 269.717 202.725 C 268.12 202.725 266.551 202.865 264.982 202.921 C 263.553 203.034 262.404 201.885 260.975 201.969 C 260.051 202.025 259.238 202.557 258.622 203.23 M 286.388 206.088 C 284.483 207.881 283.502 210.515 283.642 213.12 C 283.811 217.911 285.968 222.394 285.968 227.214 C 287.005 227.045 288.013 226.821 289.022 226.541 C 288.265 223.151 286.332 220.013 286.248 216.482 C 286.248 212.448 288.938 209.17 290.227 205.499 C 288.966 205.527 287.397 205.051 286.388 206.088 M 297.035 205.751 C 295.915 207.797 296.475 210.458 294.822 212.252 C 294.233 212.868 294.037 213.681 294.065 214.493 C 293.729 222.422 299.613 229.035 299.529 236.936 C 299.557 237.973 299.081 238.925 298.436 239.654 C 295.438 243.184 289.75 242.932 287.257 246.995 C 290.871 245.118 294.402 242.82 298.52 242.176 C 300.089 241.979 301.378 243.184 302.359 244.277 C 304.937 247.359 305.245 251.562 307.15 254.98 C 307.822 252.094 306.085 249.32 306.506 246.406 C 309.307 245.426 311.213 247.975 313.622 248.76 C 311.129 245.622 307.094 244.389 304.264 241.615 C 306.197 238.673 310.092 239.43 313.09 239.29 C 309.644 238.589 306.085 238.645 302.583 238.029 C 301.855 230.072 297.035 222.899 297.512 214.773 C 297.624 211.327 299.417 208.329 301.602 205.779 C 300.089 205.695 298.548 205.723 297.035 205.751 M 292.692 206.228 C 291.432 208.525 290.003 210.711 289.022 213.148 C 287.789 217.491 289.778 221.862 291.6 225.757 C 292.524 225.645 293.421 225.364 294.233 224.916 C 293.113 223.235 292.16 221.414 291.964 219.368 C 291.32 214.857 292.973 210.543 293.729 206.172 C 293.393 206.2 293.029 206.2 292.692 206.228 M 248.535 215.306 C 239.457 229.987 227.997 243.268 214.577 254.168 C 213.596 254.924 213.736 256.297 213.512 257.362 C 212.867 261.845 211.41 266.44 212.643 270.923 C 213.988 268.821 215.109 266.58 216.51 264.506 C 226.512 248.732 240.13 235.787 251.953 221.47 C 250.636 219.032 249.908 216.37 249.656 213.653 C 249.292 214.185 248.899 214.717 248.535 215.306 M 235.843 221.05 C 234.47 221.246 233.573 222.31 232.733 223.291 C 222.702 234.218 213.4 246.042 201.464 254.98 C 204.602 253.943 207.964 254.812 211.158 254.083 C 212.643 253.775 213.736 252.598 214.857 251.646 C 226.821 241.419 237.468 229.511 245.509 215.922 C 242.483 217.967 239.485 220.265 235.843 221.05 M 302.415 226.905 C 302.723 229.987 303.368 233.013 303.872 236.067 C 307.935 236.572 312.053 236.628 316.116 237.328 C 317.489 237.609 318.75 238.309 319.927 239.065 C 320.543 239.346 320.487 240.074 320.571 240.635 C 316.452 241.839 312.137 240.747 307.963 241.559 C 310.176 243.548 312.782 245.033 314.883 247.163 C 316.929 249.124 318.694 251.758 318.526 254.728 C 314.855 253.383 312.866 249.264 308.859 248.536 C 310.12 252.57 309.335 257.278 306.309 260.36 C 305.161 257.334 304.404 254.196 303.368 251.113 C 302.611 248.816 302.219 246.07 300.089 244.613 C 298.548 243.492 296.699 244.501 295.158 245.089 C 291.263 246.659 288.013 249.572 283.923 250.749 C 283.867 248.76 284.371 246.715 285.8 245.258 C 288.77 242.232 293.309 241.643 296.419 238.785 C 297.512 237.749 297.372 236.067 297.428 234.695 C 297.316 232.117 296.755 229.259 294.738 227.494 C 293.477 227.382 292.272 227.83 291.067 228.11 C 284.987 229.623 279.187 232.341 274.284 236.264 C 263.889 244.613 258.089 258.146 258.818 271.427 C 259.63 289.275 273.724 305.61 291.235 309.168 C 304.46 312.082 319.618 309.336 329.397 299.502 C 340.296 288.967 345.395 272.52 341.165 257.81 C 337.746 246.574 329.957 236.516 319.394 231.164 C 314.155 228.502 308.271 227.102 302.415 226.905 Z"
         fill="#241f20"
         stroke="#241f20"
         id="path8" />
    </g>
  </g>
</svg>
